<?xml version="1.0" encoding="UTF-8"?>
<svg width="32" height="32" viewBox="0 0 32 32" fill="none" xmlns="http://www.w3.org/2000/svg">
  <path d="M16 4c-5.7 0-9.3 2.9-10.7 8.5 2.1-2.8 4.6-3.9 7.4-3.3 1.6.3 2.7 1.4 4 2.6 2 2 4.4 4.2 9.3 4.2 5.7 0 9.3-2.9 10.7-8.5-2.1 2.8-4.6 3.9-7.4 3.3-1.6-.3-2.7-1.4-4-2.6-2-2-4.4-4.2-9.3-4.2zM5.3 16c-5.7 0-9.3 2.9-10.7 8.5 2.1-2.8 4.6-3.9 7.4-3.3 1.6.3 2.7 1.4 4 2.6 2 2 4.4 4.2 9.3 4.2 5.7 0 9.3-2.9 10.7-8.5-2.1 2.8-4.6 3.9-7.4 3.3-1.6-.3-2.7-1.4-4-2.6-2-2-4.4-4.2-9.3-4.2z" fill="#06B6D4"/>
</svg> 