<?xml version="1.0" encoding="UTF-8"?>
<svg width="32" height="32" viewBox="0 0 32 32" fill="none" xmlns="http://www.w3.org/2000/svg">
  <path d="M28.1 14.8c.3-1.1.5-2.3.5-3.4 0-6.1-5-11.1-11.1-11.1-4.9 0-9.1 3.2-10.5 7.7-1.1-.5-2.3-.7-3.5-.7C1.6 7.3 0 8.9 0 10.8c0 1.2.6 2.2 1.5 2.8-.2.9-.3 1.9-.3 2.8 0 6.1 5 11.1 11.1 11.1 4.9 0 9.1-3.2 10.5-7.7 1.1.5 2.3.7 3.5.7 1.9 0 3.5-1.6 3.5-3.5 0-1.2-.6-2.2-1.5-2.8l-.2.6zM16 4.7c3.7 0 6.7 3 6.7 6.7 0 .3 0 .7-.1 1-.8-.6-1.7-1-2.7-1.2-.5-2.2-2.5-3.9-4.8-3.9-2.1 0-3.9 1.3-4.6 3.2-.9.1-1.7.4-2.4.8-.5-1.6-.7-3.3-.7-5 0-3.7 3-6.7 6.7-6.7h1.9zm-1.9 22.6c-3.7 0-6.7-3-6.7-6.7 0-.3 0-.7.1-1 .8.6 1.7 1 2.7 1.2.5 2.2 2.5 3.9 4.8 3.9 2.1 0 3.9-1.3 4.6-3.2.9-.1 1.7-.4 2.4-.8.5 1.6.7 3.3.7 5 0 3.7-3 6.7-6.7 6.7h-1.9z" fill="#000000"/>
</svg> 